<?xml version="1.0" standalone="no"?>
<!DOCTYPE svg PUBLIC "-//W3C//DTD SVG 20010904//EN"
 "http://www.w3.org/TR/2001/REC-SVG-20010904/DTD/svg10.dtd">
<svg version="1.0" xmlns="http://www.w3.org/2000/svg"
 width="5721.000000pt" height="3754.000000pt" viewBox="0 0 5721.000000 3754.000000"
 preserveAspectRatio="xMidYMid meet">

<g transform="translate(0.000000,3754.000000) scale(0.100000,-0.100000)"
fill="#000000" stroke="none">
<path d="M0 25626 l0 -11914 34 -12 c19 -6 113 -15 208 -21 95 -5 207 -16 248
-25 63 -13 180 -16 715 -20 624 -4 753 -9 900 -40 180 -37 196 -37 2010 -44
1163 -5 1815 -11 1860 -18 39 -6 212 -14 385 -18 346 -7 357 -6 546 52 61 19
146 39 190 44 43 5 113 16 154 24 41 8 104 17 140 20 36 3 110 15 165 27 145
29 569 39 704 15 52 -9 120 -16 150 -16 54 0 90 -4 401 -50 80 -12 192 -25
250 -30 58 -4 150 -15 205 -23 56 -9 212 -18 355 -21 207 -5 278 -3 380 10
100 13 259 18 800 24 645 6 684 8 887 33 117 15 256 33 310 41 101 16 274 31
473 41 63 3 144 11 179 16 36 5 177 16 315 24 173 10 292 22 381 39 72 13 191
30 265 36 164 14 778 9 930 -8 200 -23 279 -33 347 -48 168 -37 337 -65 443
-74 63 -6 149 -17 190 -24 41 -8 118 -18 170 -21 52 -4 124 -14 160 -22 99
-21 595 -34 1140 -30 492 3 576 8 875 50 138 19 214 21 920 27 718 6 778 8
885 27 63 12 180 26 260 33 141 12 239 31 330 65 25 9 97 20 160 25 63 4 228
25 365 46 l250 38 595 1 c604 0 676 -3 859 -41 76 -15 102 -26 177 -74 26 -16
60 -32 77 -36 17 -3 76 -23 131 -44 57 -22 145 -45 203 -54 57 -9 114 -21 127
-26 14 -5 60 -12 103 -16 43 -3 114 -15 158 -25 62 -15 149 -22 380 -30 338
-12 597 -7 730 15 168 28 309 45 470 55 217 14 317 28 400 57 70 24 192 43
400 63 167 16 335 38 387 50 63 15 293 31 443 31 66 0 174 8 240 16 93 13 245
17 670 21 549 5 550 5 705 -20 85 -14 187 -28 225 -32 39 -4 97 -13 130 -21
33 -8 107 -19 165 -24 58 -5 161 -20 230 -34 69 -13 154 -27 190 -31 80 -8
246 -43 280 -60 26 -13 120 -30 230 -41 36 -3 81 -13 100 -21 19 -8 98 -32
175 -55 l140 -40 301 -11 c266 -9 316 -8 425 7 274 37 379 69 379 115 0 10 8
5 20 -14 l20 -30 0 83 c0 64 -5 92 -21 125 -37 74 -40 97 -53 367 l-13 265
-81 166 c-44 92 -87 191 -96 220 -8 30 -19 68 -24 84 -63 187 -71 288 -71 968
-1 534 -2 542 -67 700 -16 38 -29 98 -35 157 -6 52 -17 120 -24 150 -8 30 -17
78 -20 105 -4 28 -14 73 -22 100 -23 79 -32 428 -32 1235 -1 692 1 737 18 775
10 22 27 47 37 56 34 29 148 66 222 73 41 3 82 11 93 16 10 6 80 15 156 21
140 11 170 19 295 86 51 26 141 35 443 43 165 5 323 13 350 19 28 5 115 20
195 33 138 22 170 23 665 23 411 0 536 -3 595 -15 110 -21 1597 -22 1715 -1
58 10 218 16 580 20 444 6 504 8 540 24 22 9 74 25 115 34 68 15 239 17 1825
23 1430 5 1758 9 1795 20 37 11 418 14 2165 18 2217 4 2199 4 2360 -39 41 -11
140 -23 240 -29 94 -6 211 -18 260 -27 74 -13 211 -17 770 -23 711 -7 758 -10
940 -56 55 -14 127 -32 160 -40 33 -8 83 -22 111 -29 28 -8 86 -18 130 -21 43
-3 99 -12 124 -20 25 -7 79 -18 120 -23 96 -13 210 -44 278 -77 58 -29 171
-136 207 -199 17 -28 29 -73 39 -150 8 -61 21 -128 28 -150 9 -28 13 -111 13
-280 0 -266 6 -228 -86 -510 -16 -49 -38 -118 -48 -152 -10 -33 -31 -85 -46
-115 -52 -100 -51 -110 15 -159 50 -37 116 -51 275 -56 l141 -6 82 37 c46 20
108 55 138 78 91 70 107 78 149 78 22 0 81 9 131 20 54 11 155 21 245 25 85 3
213 13 284 21 72 8 204 19 295 23 91 5 183 14 205 21 28 8 183 13 500 17 l461
5 67 -31 c36 -17 69 -31 73 -31 9 0 148 -83 184 -109 14 -10 58 -39 97 -65 40
-25 110 -81 157 -124 94 -87 150 -133 183 -151 32 -17 237 -271 279 -346 9
-16 35 -50 57 -75 21 -25 50 -67 64 -95 14 -27 34 -59 44 -70 10 -12 29 -54
43 -95 13 -41 42 -113 64 -160 22 -47 45 -105 52 -130 7 -25 26 -74 42 -110
17 -36 36 -92 43 -125 7 -33 23 -100 35 -150 12 -49 30 -128 41 -174 10 -47
23 -96 29 -110 30 -75 40 -360 15 -476 -26 -127 -60 -214 -175 -450 -33 -66
-63 -136 -69 -155 -5 -19 -22 -66 -36 -105 -40 -105 -53 -157 -56 -222 -2 -84
7 -107 64 -156 137 -115 139 -115 657 -124 419 -6 611 2 935 42 66 8 208 20
315 25 107 6 209 12 225 15 17 3 112 12 213 20 101 9 305 34 455 56 378 56
600 68 1385 76 l662 6 0 11713 0 11714 -28605 0 -28605 0 0 -11914z"/>
<path d="M49970 16864 c-60 -6 -143 -25 -190 -44 -157 -61 -209 -79 -245 -83
-36 -4 -72 -19 -170 -69 -16 -9 -67 -34 -113 -57 -46 -22 -107 -56 -135 -75
-61 -41 -241 -239 -282 -311 -16 -27 -45 -70 -65 -95 -82 -103 -167 -261 -194
-360 -9 -36 -26 -94 -36 -130 -10 -36 -22 -87 -28 -115 -27 -132 -52 -207 -97
-290 -26 -49 -54 -111 -62 -137 -7 -27 -22 -56 -32 -65 -9 -10 -30 -35 -46
-56 -15 -21 -42 -44 -59 -52 -17 -8 -49 -25 -71 -38 -22 -13 -56 -27 -75 -30
-27 -5 -56 -28 -120 -93 l-85 -86 43 7 c46 7 53 -3 29 -40 -22 -34 -46 -127
-51 -200 -3 -38 -12 -90 -20 -115 -22 -68 -57 -208 -67 -268 -5 -30 -18 -70
-28 -90 -10 -21 -22 -53 -26 -72 -7 -35 -42 -98 -130 -235 -50 -78 -127 -225
-149 -282 -29 -78 -64 -180 -76 -223 -8 -28 -27 -59 -55 -86 -39 -39 -43 -48
-60 -137 -20 -105 -17 -295 4 -335 21 -40 72 -52 215 -52 190 1 424 17 476 34
25 8 65 22 90 31 25 9 84 23 131 31 50 8 126 30 182 54 53 22 102 40 108 40 6
0 77 29 159 65 82 36 153 65 159 65 6 0 56 23 111 50 55 28 124 55 153 61 28
6 107 28 174 50 67 21 129 39 137 39 9 0 76 25 151 55 74 30 140 55 146 55 7
0 47 18 90 40 43 22 83 40 88 40 5 0 62 25 126 55 63 30 121 55 128 55 29 0
236 116 279 157 26 24 67 52 90 62 24 10 60 33 82 50 21 17 44 31 51 31 6 0
29 15 51 33 48 40 111 87 117 87 8 0 142 92 167 114 14 13 58 44 98 70 80 51
202 164 202 188 0 8 11 32 25 52 14 21 34 65 46 99 24 74 84 230 103 272 8 17
24 64 35 105 12 41 30 104 40 140 11 36 22 77 25 93 4 15 22 59 41 97 18 39
39 87 46 108 6 20 16 43 21 49 6 7 24 41 40 75 l30 63 -5 355 c-5 362 -6 374
-50 493 -46 122 -198 278 -359 367 -35 19 -80 47 -99 63 -20 15 -40 27 -45 27
-4 0 -47 22 -94 49 -47 28 -108 55 -135 61 -28 6 -66 22 -85 35 -20 14 -67 33
-105 44 -39 10 -90 27 -115 37 -40 17 -77 19 -320 20 -151 1 -291 0 -310 -2z"/>
</g>
</svg>
